HIERARCHY
ROOT joint_Root
{
	OFFSET 0.0 0.0 0.0
	CHANNELS 6 Xposition Yposition Zposition Zrotation Xrotation Yrotation 
	JOINT Hips
	{
		OFFSET 4.5925 91.4895 -427.239
		CHANNELS 6 Xposition Yposition Zposition Zrotation Xrotation Yrotation 
		JOINT Spine
		{
			OFFSET 15.7357 0.0 0.0
			CHANNELS 6 Xposition Yposition Zposition Zrotation Xrotation Yrotation 
			JOINT Chest
			{
				OFFSET 8.98455 -0.406207 0.0
				CHANNELS 6 Xposition Yposition Zposition Zrotation Xrotation Yrotation 
				JOINT Neck
				{
					OFFSET 16.3773 0.0 0.0
					CHANNELS 6 Xposition Yposition Zposition Zrotation Xrotation Yrotation 
					JOINT Head
					{
						OFFSET 6.45672 0.0 0.0
						CHANNELS 6 Xposition Yposition Zposition Zrotation Xrotation Yrotation 
						End Site
						{
							OFFSET 0.0 0.0 0.0
						}
					}
				}
				JOINT Shoulder_L
				{
					OFFSET 12.9942 -0.242716 4.98039
					CHANNELS 6 Xposition Yposition Zposition Zrotation Xrotation Yrotation 
					JOINT UpperArm_L
					{
						OFFSET 5.34809 0.0 0.0
						CHANNELS 6 Xposition Yposition Zposition Zrotation Xrotation Yrotation 
						JOINT LowerArm_L
						{
							OFFSET 24.3286 1.87007e-05 0.0
							CHANNELS 6 Xposition Yposition Zposition Zrotation Xrotation Yrotation 
							JOINT Hand_L
							{
								OFFSET 22.2916 0.0 0.0
								CHANNELS 6 Xposition Yposition Zposition Zrotation Xrotation Yrotation 
								End Site
								{
									OFFSET 0.0 0.0 0.0
								}
							}
						}
					}
				}
				JOINT Shoulder_R
				{
					OFFSET 12.9945 -0.242716 -4.98039
					CHANNELS 6 Xposition Yposition Zposition Zrotation Xrotation Yrotation 
					JOINT UpperArm_R
					{
						OFFSET -5.34813 0.0 0.0
						CHANNELS 6 Xposition Yposition Zposition Zrotation Xrotation Yrotation 
						JOINT LowerArm_R
						{
							OFFSET -24.3289 0.000322201 0.0
							CHANNELS 6 Xposition Yposition Zposition Zrotation Xrotation Yrotation 
							JOINT Hand_R
							{
								OFFSET -22.2915 -0.000108084 0.0
								CHANNELS 6 Xposition Yposition Zposition Zrotation Xrotation Yrotation 
								End Site
								{
									OFFSET 0.0 0.0 0.0
								}
							}
						}
					}
				}
			}
		}
		JOINT UpperLeg_L
		{
			OFFSET -2.19248 -6.46944 0.0
			CHANNELS 6 Xposition Yposition Zposition Zrotation Xrotation Yrotation 
			JOINT LowerLeg_L
			{
				OFFSET 39.0811 0.0 -1.23785e-05
				CHANNELS 6 Xposition Yposition Zposition Zrotation Xrotation Yrotation 
				JOINT Foot_L
				{
					OFFSET 40.9854 0.0 -1.26872e-05
					CHANNELS 6 Xposition Yposition Zposition Zrotation Xrotation Yrotation 
					JOINT Toes_L
					{
						OFFSET 11.7543 0.0 0.0
						CHANNELS 6 Xposition Yposition Zposition Zrotation Xrotation Yrotation 
						End Site
						{
							OFFSET 0.0 0.0 0.0
						}
					}
				}
			}
		}
		JOINT UpperLeg_R
		{
			OFFSET -2.19251 6.46944 0.0
			CHANNELS 6 Xposition Yposition Zposition Zrotation Xrotation Yrotation 
			JOINT LowerLeg_R
			{
				OFFSET -39.0811 -0.00228153 -0.0401928
				CHANNELS 6 Xposition Yposition Zposition Zrotation Xrotation Yrotation 
				JOINT Foot_R
				{
					OFFSET -40.9854 0.0 0.0
					CHANNELS 6 Xposition Yposition Zposition Zrotation Xrotation Yrotation 
					JOINT Toes_R
					{
						OFFSET -11.7543 0.0 0.0
						CHANNELS 6 Xposition Yposition Zposition Zrotation Xrotation Yrotation 
						End Site
						{
							OFFSET 0.0 0.0 0.0
						}
					}
				}
			}
		}
	}
}
MOTION
Frames:	9
Frame Time:	0.0333333
0.000000 0.000000 0.000000 0.000000 0.000000 -0.000000 -62.413600 89.166000 199.727000 -87.886000 88.071900 -178.541000 15.735700 0.000005 -0.000001 82.579500 80.752600 -82.228700 8.984550 -0.406207 -0.000000 10.587900 -2.363360 0.920183 16.377300 -0.000001 -0.000001 3.206060 -3.419170 0.860787 6.456720 -0.000001 -0.000000 -0.999931 -2.062930 2.336870 12.994200 -0.242716 4.980390 -90.549800 2.033360 -74.866500 5.348090 -0.000007 -0.000001 -62.117100 27.699000 -23.542900 24.328600 0.000019 0.000005 10.399100 15.569900 -34.360900 22.291600 -0.000001 0.000005 17.226200 5.302750 -0.004548 12.994500 -0.242716 -4.980390 88.417900 9.198150 -80.196800 -5.348130 -0.000001 -0.000004 -65.051300 29.064700 -8.634270 -24.328900 0.000322 -0.000009 1.330820 4.186840 -17.664000 -22.291500 -0.000108 -0.000004 13.964300 5.399250 -2.913170 -2.192480 -6.469440 -0.000000 -175.394000 -6.705340 -7.228350 39.081100 -0.000007 -0.000012 0.036724 -0.032217 48.737700 40.985400 -0.000006 -0.000013 0.154774 0.155114 -67.405900 11.754300 -0.000000 0.000003 -0.029251 -0.214024 -25.343200 -2.192510 6.469440 -0.000001 -177.755000 17.973300 161.671000 -39.081100 -0.002282 -0.040193 -0.119830 0.148060 39.742900 -40.985400 0.000008 0.000006 7.230460 1.212950 -69.200500 -11.754300 -0.000006 -0.000006 -0.004449 -0.056027 -18.852400
0.000000 0.000000 0.000000 0.000000 0.000000 -0.000000 -60.585600 89.349100 200.164000 -97.914800 87.904000 -168.098000 15.735700 0.000005 -0.000001 84.066500 80.618100 -83.708100 8.984550 -0.406207 -0.000000 10.907900 -1.915640 0.899436 16.377300 -0.000001 -0.000001 3.262280 -3.464370 1.084600 6.456720 -0.000001 -0.000000 -1.086260 -2.190590 2.343630 12.994200 -0.242716 4.980390 -90.519300 1.922390 -74.881600 5.348090 -0.000007 -0.000001 -63.068500 28.916300 -22.567700 24.328600 0.000019 0.000005 10.363500 15.740100 -33.985400 22.291600 -0.000001 0.000005 16.555200 5.305400 -0.079234 12.994500 -0.242716 -4.980390 88.514900 8.891330 -80.477800 -5.348130 -0.000001 -0.000004 -64.751100 28.788100 -9.535070 -24.328900 0.000322 -0.000009 1.160130 3.554630 -18.104300 -22.291500 -0.000108 -0.000004 13.992000 5.402110 -3.005970 -2.192480 -6.469440 -0.000000 -175.449000 -6.171000 -10.655800 39.081100 -0.000007 -0.000012 0.059576 -0.041366 55.223200 40.985400 -0.000006 -0.000013 -0.689154 -0.880544 -61.907500 11.754300 -0.000000 0.000003 -0.011942 -0.117631 -21.372100 -2.192510 6.469440 -0.000001 -178.477000 19.268700 163.925000 -39.081100 -0.002282 -0.040193 -0.132097 0.166322 39.144000 -40.985400 0.000008 0.000006 7.328430 2.313940 -70.474800 -11.754300 -0.000006 -0.000006 -0.003945 -0.050872 -18.642400
0.000000 0.000000 0.000000 0.000000 0.000000 -0.000000 -58.848700 89.501200 200.479000 -108.457000 88.205500 -157.429000 15.735700 0.000005 -0.000001 85.965400 80.563200 -85.631500 8.984550 -0.406207 -0.000000 11.066800 -1.308320 0.794096 16.377300 -0.000001 -0.000001 3.201880 -3.346310 1.289450 6.456720 -0.000001 -0.000000 -1.185070 -2.238720 2.414930 12.994200 -0.242716 4.980390 -90.558000 2.046140 -74.743400 5.348090 -0.000007 -0.000001 -63.647900 30.475400 -21.180500 24.328600 0.000019 0.000005 10.715900 16.225500 -34.108200 22.291600 -0.000001 0.000005 16.168600 5.303930 -0.038290 12.994500 -0.242716 -4.980390 88.562400 8.901770 -80.787900 -5.348130 -0.000001 -0.000004 -63.518900 29.248400 -10.974500 -24.328900 0.000322 -0.000009 0.966951 2.819010 -18.961500 -22.291500 -0.000108 -0.000004 14.209600 5.408390 -3.211920 -2.192480 -6.469440 -0.000000 -175.775000 -6.588860 -13.367400 39.081100 -0.000007 -0.000012 0.071341 -0.042266 59.352900 40.985400 -0.000006 -0.000013 -0.768460 -3.048290 -60.606200 11.754300 -0.000000 0.000003 -0.003172 -0.042542 -18.307000 -2.192510 6.469440 -0.000001 -179.012000 19.627900 165.784000 -39.081100 -0.002282 -0.040193 -0.120572 0.155658 38.508800 -40.985400 0.000008 0.000006 7.724360 2.972030 -71.586700 -11.754300 -0.000006 -0.000006 -0.003507 -0.046208 -18.452500
0.000000 0.000000 0.000000 0.000000 0.000000 -0.000000 -57.235300 89.683400 200.673000 -133.557000 88.441500 -132.386000 15.735700 0.000005 -0.000001 87.507200 80.555600 -87.308200 8.984550 -0.406207 -0.000000 11.107200 -0.809524 0.476556 16.377300 -0.000001 -0.000001 3.131500 -3.169850 1.412590 6.456720 -0.000001 -0.000000 -1.281340 -2.160570 2.461040 12.994200 -0.242716 4.980390 -90.604400 2.188920 -74.561500 5.348090 -0.000007 -0.000001 -64.599200 31.653900 -19.345900 24.328600 0.000019 0.000005 10.884100 16.741500 -33.723900 22.291600 -0.000001 0.000005 15.799900 5.318560 -0.454670 12.994500 -0.242716 -4.980390 88.581200 9.004820 -81.007900 -5.348130 -0.000001 -0.000004 -61.870700 29.755500 -12.899100 -24.328900 0.000322 -0.000009 1.013210 2.802230 -19.906700 -22.291500 -0.000108 -0.000004 14.548900 5.412260 -3.340080 -2.192480 -6.469440 -0.000000 -176.709000 -7.327680 -15.579700 39.081100 -0.000007 -0.000012 0.066177 -0.036981 60.799700 40.985400 -0.000006 -0.000013 0.339975 -4.783650 -62.104700 11.754300 -0.000000 0.000003 -0.001882 -0.027231 -17.684000 -2.192510 6.469440 -0.000001 -179.710000 19.781200 167.381000 -39.081100 -0.002282 -0.040193 -0.086790 0.116368 37.741600 -40.985400 0.000008 0.000006 8.299140 3.428710 -72.512700 -11.754300 -0.000006 -0.000006 -0.003195 -0.042785 -18.313200
0.000000 0.000000 0.000000 0.000000 0.000000 -0.000000 -55.720600 89.875700 200.810000 -149.666000 88.396200 -116.485000 15.735700 0.000005 -0.000001 88.315000 80.580000 -88.217100 8.984550 -0.406207 -0.000000 11.066600 -0.546973 0.248847 16.377300 -0.000001 -0.000001 3.142130 -2.963360 1.569270 6.456720 -0.000001 -0.000000 -1.451620 -2.159440 2.385290 12.994200 -0.242716 4.980390 -90.581300 2.084220 -74.413500 5.348090 -0.000007 -0.000001 -65.825900 32.810000 -17.380100 24.328600 0.000019 0.000005 10.668500 17.057300 -32.709600 22.291600 -0.000001 0.000005 15.268400 5.328770 -0.750386 12.994500 -0.242716 -4.980390 88.623100 8.912180 -81.180700 -5.348130 -0.000001 -0.000004 -60.696300 29.579400 -14.832000 -24.328900 0.000322 -0.000009 1.086510 2.836770 -20.986100 -22.291500 -0.000108 -0.000004 15.133700 5.415130 -3.435600 -2.192480 -6.469440 -0.000000 -177.734000 -7.700600 -17.522400 39.081100 -0.000007 -0.000012 0.051448 -0.030149 59.625600 40.985400 -0.000006 -0.000013 1.099240 -6.041660 -63.354600 11.754300 -0.000000 0.000003 -0.001468 -0.021846 -17.465100 -2.192510 6.469440 -0.000001 179.790000 20.301700 168.868000 -39.081100 -0.002282 -0.040193 -0.027795 0.041650 36.732200 -40.985400 0.000008 0.000006 9.214560 3.985860 -73.315500 -11.754300 -0.000006 -0.000006 -0.002863 -0.039045 -18.161000
0.000000 0.000000 0.000000 0.000000 0.000000 -0.000000 -54.283700 90.030900 200.923000 -163.590000 88.313100 -102.942000 15.735700 0.000005 -0.000001 89.133200 80.654300 -89.111900 8.984550 -0.406207 -0.000000 10.923300 -0.280092 0.069433 16.377300 -0.000001 -0.000001 3.059080 -2.915240 1.577320 6.456720 -0.000001 -0.000000 -1.489390 -2.170140 2.309910 12.994200 -0.242716 4.980390 -90.545600 1.950290 -74.368000 5.348090 -0.000007 -0.000001 -67.165400 33.806700 -15.481600 24.328600 0.000019 0.000005 10.487400 17.842600 -31.138200 22.291600 -0.000001 0.000005 14.434600 5.327400 -0.709559 12.994500 -0.242716 -4.980390 88.694800 8.591210 -81.328300 -5.348130 -0.000001 -0.000004 -60.078700 28.684000 -16.502600 -24.328900 0.000322 -0.000009 0.928910 2.272260 -22.266800 -22.291500 -0.000108 -0.000004 15.562800 5.419350 -3.577280 -2.192480 -6.469440 -0.000000 -178.714000 -7.860840 -19.042100 39.081100 -0.000007 -0.000012 0.036676 -0.024715 56.020300 40.985400 -0.000006 -0.000013 1.169590 -5.615200 -64.184700 11.754300 -0.000000 0.000003 -0.001332 -0.020015 -17.390700 -2.192510 6.469440 -0.000001 179.395000 20.821900 170.104000 -39.081100 -0.002282 -0.040193 0.016820 -0.018825 35.707600 -40.985400 0.000008 0.000006 9.788280 4.578770 -74.007200 -11.754300 -0.000006 -0.000006 -0.002254 -0.031848 -17.868200
0.000000 0.000000 0.000000 0.000000 0.000000 -0.000000 -52.865300 90.138200 200.974000 -174.789000 88.200000 -92.114600 15.735700 0.000005 -0.000001 89.865200 80.720800 -89.915900 8.984550 -0.406207 -0.000000 10.792300 -0.044667 -0.096973 16.377300 -0.000001 -0.000001 2.916020 -2.937100 1.596070 6.456720 -0.000001 -0.000000 -1.548780 -2.217850 2.195880 12.994200 -0.242716 4.980390 -90.529200 1.886880 -74.330200 5.348090 -0.000007 -0.000001 -68.264200 34.772500 -13.876900 24.328600 0.000019 0.000005 10.104600 18.742100 -29.014500 22.291600 -0.000001 0.000005 13.283900 5.325360 -0.649997 12.994500 -0.242716 -4.980390 88.757500 8.315080 -81.470900 -5.348130 -0.000001 -0.000004 -59.532600 27.720700 -17.956200 -24.328900 0.000322 -0.000009 0.656145 1.496900 -23.710900 -22.291500 -0.000108 -0.000004 15.843100 5.427980 -3.869390 -2.192480 -6.469440 -0.000000 -179.618000 -7.899420 -20.024000 39.081100 -0.000007 -0.000012 0.023512 -0.019405 50.461000 40.985400 -0.000006 -0.000013 0.437339 -4.081610 -64.220700 11.754300 -0.000000 0.000003 -0.001449 -0.021596 -17.454900 -2.192510 6.469440 -0.000001 178.964000 21.214500 171.158000 -39.081100 -0.002282 -0.040193 0.033811 -0.043622 34.978500 -40.985400 0.000008 0.000006 10.025400 5.149720 -74.463500 -11.754300 -0.000006 -0.000006 -0.002171 -0.030841 -17.827200
0.000000 0.000000 0.000000 0.000000 0.000000 -0.000000 -51.467600 90.165600 200.949000 172.734000 88.102900 -80.040600 15.735700 0.000005 -0.000001 90.867700 80.785100 -90.986800 8.984550 -0.406207 -0.000000 10.662100 0.274114 -0.263769 16.377300 -0.000001 -0.000001 2.727220 -2.952770 1.636970 6.456720 -0.000001 -0.000000 -1.708610 -2.312100 2.097540 12.994200 -0.242716 4.980390 -90.529200 1.881340 -74.287200 5.348090 -0.000007 -0.000001 -69.344500 35.239400 -12.491400 24.328600 0.000019 0.000005 9.799970 20.207700 -26.568000 22.291600 -0.000001 0.000005 12.429500 5.321450 -0.537044 12.994500 -0.242716 -4.980390 88.800800 8.123640 -81.573600 -5.348130 -0.000001 -0.000004 -58.771500 27.119700 -19.310400 -24.328900 0.000322 -0.000009 0.282347 0.600824 -25.261000 -22.291500 -0.000108 -0.000004 16.151600 5.435240 -4.119450 -2.192480 -6.469440 -0.000000 179.508000 -8.332050 -20.634200 39.081100 -0.000007 -0.000012 0.012504 -0.013106 43.645300 40.985400 -0.000006 -0.000013 -0.263900 -2.214500 -63.960100 11.754300 -0.000000 0.000003 -0.001246 -0.018842 -17.343000 -2.192510 6.469440 -0.000001 178.538000 21.382100 172.005000 -39.081100 -0.002282 -0.040193 0.028809 -0.037072 34.539700 -40.985400 0.000008 0.000006 9.877410 5.768150 -74.901500 -11.754300 -0.000006 -0.000006 -0.001793 -0.026095 -17.634200
0.000000 0.000000 0.000000 0.000000 0.000000 -0.000000 -50.029200 90.106800 200.878000 159.559000 88.083600 -67.283600 15.735700 0.000005 -0.000001 91.862800 80.854500 -91.999800 8.984550 -0.406207 -0.000000 10.516300 0.587183 -0.327876 16.377300 -0.000001 -0.000001 2.455260 -2.921680 1.678680 6.456720 -0.000001 -0.000000 -1.812820 -2.332960 1.919410 12.994200 -0.242716 4.980390 -90.526400 1.867540 -74.254700 5.348090 -0.000007 -0.000001 -70.445400 35.105000 -11.211600 24.328600 0.000019 0.000005 9.347530 21.649900 -24.045500 22.291600 -0.000001 0.000005 11.507600 5.318070 -0.439922 12.994500 -0.242716 -4.980390 88.858300 7.851410 -81.699500 -5.348130 -0.000001 -0.000004 -58.088400 26.712100 -20.483000 -24.328900 0.000322 -0.000009 0.178097 0.355902 -26.724600 -22.291500 -0.000108 -0.000004 16.533200 5.441090 -4.323840 -2.192480 -6.469440 -0.000000 178.712000 -8.910360 -21.102100 39.081100 -0.000007 -0.000012 0.003675 -0.004966 36.497200 40.985400 -0.000006 -0.000013 -0.610123 -0.394949 -63.724900 11.754300 -0.000000 0.000003 -0.001092 -0.016708 -17.256300 -2.192510 6.469440 -0.000001 178.268000 21.446700 172.700000 -39.081100 -0.002282 -0.040193 0.026270 -0.033542 34.412900 -40.985400 0.000008 0.000006 9.899140 6.253890 -75.399900 -11.754300 -0.000006 -0.000006 -0.002263 -0.031959 -17.872700
